<svg width="199" height="52" viewBox="0 0 199 52" fill="none" xmlns="http://www.w3.org/2000/svg">
<path d="M12.8231 12.6451C8.10786 17.3157 0 14.0121 0 7.40492C0 3.3039 3.33515 0.000301339 7.47533 0.000301339C14.2031 -0.0566573 17.5383 7.9745 12.8231 12.6451Z" fill="#FFD600"/>
<path d="M20.964 44.0233L27.5344 37.7226C28.4298 36.8639 29.8468 36.8677 30.7376 37.7311L37.2294 44.0233L41.4562 47.9322C42.9919 49.3524 41.984 51.9136 39.8893 51.9136H18.4942C16.4252 51.9136 15.4048 49.4054 16.8891 47.9683L20.964 44.0233Z" fill="white"/>
<path d="M0.0541969 30.5704L0.0541961 43.2389C0.0542005 45.2604 2.50838 46.2972 3.99046 44.9017L42.0861 9.03252C42.8708 8.29369 41.9596 7.05173 41.0034 7.55693L1.28376 28.5443C0.526742 28.9443 0.0541991 29.723 0.0541969 30.5704Z" fill="white"/>
<path d="M64.0445 12.4271H64.7793C65.4597 12.4271 65.9496 12.218 66.2489 11.7998L70.7121 5.44605C70.957 5.099 71.2337 4.86318 71.5421 4.7386C71.8596 4.61402 72.2452 4.55172 72.6987 4.55172H76.6992L70.8209 12.4138C70.6123 12.6986 70.3946 12.9344 70.1678 13.1212C69.941 13.3081 69.7097 13.4638 69.4738 13.5884C69.8185 13.713 70.1315 13.8865 70.4127 14.109C70.703 14.3226 70.9661 14.6118 71.2019 14.9766L77.1891 24H73.0797C72.8167 24 72.5899 23.9822 72.3994 23.9466C72.2179 23.911 72.0592 23.8576 71.9231 23.7864C71.787 23.7152 71.6691 23.6307 71.5693 23.5328C71.4695 23.426 71.3743 23.3059 71.2836 23.1724L66.7932 16.4049C66.6299 16.1557 66.4213 15.9822 66.1673 15.8843C65.9223 15.7775 65.5867 15.7241 65.1603 15.7241H64.0445V24H59.4453V4.55172H64.0445V12.4271Z" fill="white"/>
<path d="M92.0718 24H87.4453V4.55172H92.0718V24Z" fill="white"/>
<path d="M106.341 4.55172C106.54 4.55172 106.708 4.56062 106.844 4.57842C106.98 4.59622 107.103 4.63181 107.211 4.68521C107.32 4.7297 107.425 4.79644 107.524 4.88543C107.624 4.97442 107.738 5.09455 107.865 5.24583L117.281 16.9255C117.245 16.5517 117.217 16.1913 117.199 15.8443C117.181 15.4883 117.172 15.1546 117.172 14.8432V4.55172H121.227V24H118.832C118.478 24 118.179 23.9466 117.934 23.8398C117.689 23.733 117.453 23.5373 117.226 23.2525L107.878 11.6663C107.905 12.0044 107.928 12.3382 107.946 12.6674C107.964 12.9878 107.973 13.2903 107.973 13.5751V24H103.919V4.55172H106.341Z" fill="white"/>
<path d="M145.417 4.55172V8.02225H137.28V12.5606H143.512V15.8977H137.28V20.5295H145.417V24H132.653V4.55172H145.417ZM145.036 0L141.022 2.85651C140.786 3.03448 140.563 3.15462 140.355 3.21691C140.155 3.2703 139.901 3.297 139.593 3.297H136.245L138.708 0.667409C138.826 0.533927 138.94 0.427141 139.049 0.347053C139.166 0.258065 139.289 0.186875 139.416 0.133482C139.543 0.0800895 139.684 0.0444944 139.838 0.026696C139.992 0.00889866 140.173 0 140.382 0H145.036Z" fill="white"/>
<path d="M64.0346 40.4271H64.7678C65.4467 40.4271 65.9355 40.218 66.2342 39.7998L70.6878 33.446C70.9322 33.099 71.2083 32.8632 71.516 32.7386C71.8328 32.614 72.2175 32.5517 72.6701 32.5517H76.662L70.7964 40.4138C70.5882 40.6986 70.371 40.9344 70.1447 41.1212C69.9184 41.3081 69.6875 41.4638 69.4522 41.5884C69.7962 41.713 70.1084 41.8865 70.3891 42.109C70.6787 42.3226 70.9412 42.6118 71.1766 42.9766L77.1508 52H73.0503C72.7878 52 72.5615 51.9822 72.3714 51.9466C72.1904 51.911 72.032 51.8576 71.8962 51.7864C71.7604 51.7152 71.6427 51.6307 71.5432 51.5328C71.4436 51.426 71.3486 51.3059 71.258 51.1724L66.7773 44.4049C66.6144 44.1557 66.4062 43.9822 66.1528 43.8843C65.9084 43.7775 65.5734 43.7241 65.148 43.7241H64.0346V52H59.4453V32.5517H64.0346V40.4271Z" fill="white"/>
<path d="M91.5669 48.396H98.8989V52H86.9776V32.5517H91.5669V48.396Z" fill="white"/>
<path d="M121.942 32.5517V36.0222H113.822V40.5606H120.041V43.8977H113.822V48.5295H121.942V52H109.206V32.5517H121.942ZM121.562 28L117.556 30.8565C117.321 31.0345 117.099 31.1546 116.891 31.2169C116.692 31.2703 116.438 31.297 116.131 31.297H112.791L115.248 28.6674C115.366 28.5339 115.479 28.4271 115.588 28.3471C115.705 28.2581 115.827 28.1869 115.954 28.1335C116.081 28.0801 116.221 28.0445 116.375 28.0267C116.529 28.0089 116.71 28 116.918 28H121.562Z" fill="white"/>
<path d="M132.707 52V32.5517H139.985C141.352 32.5517 142.515 32.6763 143.475 32.9255C144.434 33.1746 145.217 33.5261 145.824 33.98C146.43 34.4338 146.869 34.9855 147.141 35.6351C147.421 36.2848 147.562 37.01 147.562 37.8109C147.562 38.2469 147.498 38.6696 147.371 39.079C147.245 39.4794 147.046 39.8576 146.774 40.2136C146.502 40.5695 146.154 40.8943 145.728 41.188C145.303 41.4727 144.792 41.7219 144.194 41.9355C145.498 42.2469 146.462 42.7542 147.086 43.4572C147.711 44.1513 148.023 45.0456 148.023 46.1402C148.023 46.9677 147.86 47.7375 147.534 48.4494C147.208 49.1613 146.729 49.7842 146.095 50.3181C145.471 50.8432 144.697 51.2569 143.773 51.5595C142.85 51.8532 141.795 52 140.61 52H132.707ZM137.297 43.7508V48.5962H140.528C141.135 48.5962 141.628 48.5206 142.008 48.3693C142.397 48.218 142.701 48.0222 142.918 47.782C143.135 47.5417 143.284 47.2703 143.366 46.9677C143.447 46.6652 143.488 46.3582 143.488 46.0467C143.488 45.6908 143.438 45.3704 143.339 45.0856C143.248 44.8009 143.085 44.5606 142.85 44.3648C142.624 44.1691 142.32 44.0178 141.94 43.911C141.56 43.8042 141.08 43.7508 140.501 43.7508H137.297ZM137.297 40.7341H139.686C140.193 40.7341 140.65 40.6986 141.058 40.6274C141.465 40.5562 141.809 40.4316 142.09 40.2536C142.379 40.0756 142.597 39.8309 142.741 39.5195C142.895 39.208 142.972 38.8165 142.972 38.3448C142.972 37.8821 142.913 37.4994 142.796 37.1969C142.678 36.8854 142.497 36.6363 142.253 36.4494C142.008 36.2625 141.696 36.129 141.316 36.0489C140.945 35.9689 140.501 35.9288 139.985 35.9288H137.297V40.7341Z" fill="white"/>
<path d="M171.411 32.5517V36.0222H163.291V40.5606H169.51V43.8977H163.291V48.5295H171.411V52H158.675V32.5517H171.411Z" fill="white"/>
<path d="M186.766 44.8053V52H182.176V32.5517H188.612C190.042 32.5517 191.26 32.6986 192.265 32.9922C193.278 33.277 194.102 33.6774 194.736 34.1935C195.379 34.7097 195.845 35.3192 196.134 36.0222C196.424 36.7253 196.569 37.4905 196.569 38.3181C196.569 38.9499 196.483 39.5462 196.311 40.1068C196.139 40.6674 195.881 41.188 195.537 41.6685C195.202 42.1402 194.786 42.5628 194.288 42.9366C193.799 43.3103 193.233 43.6174 192.591 43.8576C192.898 44.0089 193.183 44.1958 193.446 44.4182C193.717 44.6407 193.953 44.9121 194.152 45.2325L198.361 52H194.206C193.437 52 192.885 51.7152 192.55 51.1457L189.264 45.4994C189.119 45.2503 188.947 45.0723 188.748 44.9655C188.558 44.8587 188.286 44.8053 187.933 44.8053H186.766ZM186.766 41.6952H188.612C189.237 41.6952 189.766 41.6196 190.201 41.4683C190.644 41.3081 191.006 41.0901 191.287 40.8142C191.568 40.5384 191.771 40.218 191.898 39.8532C192.025 39.4794 192.088 39.079 192.088 38.6518C192.088 37.7976 191.803 37.1301 191.233 36.6496C190.672 36.1691 189.798 35.9288 188.612 35.9288H186.766V41.6952Z" fill="white"/>
</svg>
