<svg width="32" height="32" viewBox="0 0 32 32" fill="none" xmlns="http://www.w3.org/2000/svg">
<path fill-rule="evenodd" clip-rule="evenodd" d="M8.19271 2.02411e-06L8.21077 3.94664e-06C9.18163 3.94664e-06 9.93696 0.380339 10.449 0.910066C10.4791 0.941146 10.5053 0.97592 10.5272 1.01361C10.7125 1.33312 10.8351 1.67122 10.8351 2.02936C10.8351 2.39713 10.706 2.72259 10.4973 3.01044C10.4826 3.03079 10.4664 3.05003 10.449 3.06802L10.2732 3.24995L10.2139 4.04644C10.3074 4.11256 10.3876 4.19293 10.4528 4.27969C10.6186 4.50019 10.7052 4.77915 10.7052 5.05324C10.7052 5.0711 10.7043 5.08895 10.7026 5.10673L10.6009 6.15897C10.5944 6.43175 10.5004 6.6973 10.3061 6.89826C10.222 6.98529 10.1262 7.05285 10.0231 7.10205C9.87032 7.9203 9.51267 8.6684 8.98537 9.22148L9.07005 9.65946L11.0391 10.1224C12.5304 10.5081 13.5114 11.9164 13.5114 13.4395C13.5114 13.7363 13.2787 13.977 12.9917 13.977H0.519669C0.232664 13.977 0 13.7363 0 13.4395C0 11.9194 0.977163 10.5137 2.46353 10.1248L4.36488 9.56284L4.51065 9.06021C4.09078 8.53873 3.76074 7.85018 3.60559 7.13393C3.48003 7.08343 3.36485 7.00901 3.2695 6.9227C3.08729 6.75778 2.9205 6.49668 2.91061 6.15999L2.81344 5.15476C2.72475 4.79436 2.858 4.46604 3.04141 4.25259C3.11159 4.17092 3.19554 4.09759 3.28966 4.03753C3.28516 3.98611 3.28052 3.93211 3.27587 3.87682C3.25056 3.57579 3.22195 3.20017 3.22195 3.01044C3.22195 2.48197 3.3036 1.81629 3.80288 1.29981C4.27308 0.813405 5.01365 0.562093 6.07468 0.539289C6.89075 -0.000210965 7.69492 -7.9427e-05 8.19271 2.02411e-06ZM8.21077 1.07516C7.69585 1.07516 7.11984 1.08274 6.53808 1.5126C6.44994 1.57773 6.34434 1.61274 6.23603 1.61274C5.20117 1.61274 4.74568 1.84502 4.53781 2.06006C4.33553 2.26931 4.26129 2.57127 4.26129 3.01044C4.26129 3.14325 4.28464 3.46649 4.3113 3.78368C4.32413 3.93634 4.33699 4.07928 4.34664 4.18414L4.35828 4.30893L4.36258 4.354C4.37719 4.50512 4.32938 4.65625 4.23086 4.76886C4.13321 4.88048 3.99484 4.94458 3.84944 4.94571C3.8481 4.9461 3.8456 4.94697 3.84203 4.94873C3.84006 4.94971 3.83812 4.95078 3.83624 4.95193C3.83917 4.96774 3.84142 4.9837 3.84297 4.99975L3.94691 6.0749C3.948 6.08622 3.94875 6.09757 3.94914 6.10893C3.95048 6.11034 3.95206 6.1119 3.9539 6.11357C3.95809 6.11736 3.96291 6.12105 3.968 6.12433C3.9705 6.12594 3.97283 6.12728 3.97489 6.12839H4.05342C4.3155 6.12839 4.53657 6.33027 4.56908 6.59929C4.65914 7.34467 5.0249 8.09335 5.46022 8.54367C5.5954 8.68351 5.64544 8.88884 5.59051 9.07827L5.27871 10.1534C5.22781 10.3289 5.09402 10.4655 4.92372 10.5158L2.74111 11.1609L2.72438 11.1656C1.89511 11.38 1.28534 12.0713 1.0989 12.9019H12.4125C12.2264 12.073 11.6188 11.3829 10.7921 11.1669L8.51134 10.6307C8.31156 10.5837 8.15711 10.4197 8.11693 10.2119L7.90906 9.13674C7.87169 8.94346 7.93958 8.74452 8.08596 8.61833C8.59003 8.1838 8.95377 7.4599 9.04542 6.6066C9.07466 6.33436 9.29711 6.12839 9.56191 6.12839C9.56191 6.11053 9.56277 6.09268 9.56449 6.0749L9.66502 5.03497C9.66358 5.01882 9.66028 5.00225 9.65516 4.98636C9.64924 4.96797 9.64205 4.95409 9.63595 4.94483C9.50219 4.93686 9.37611 4.87568 9.28455 4.7734C9.1862 4.66353 9.13661 4.51621 9.14771 4.36691L9.25164 2.96921C9.26116 2.84126 9.3146 2.72106 9.40232 2.63032L9.68544 2.33744C9.7724 2.20928 9.79576 2.1126 9.79576 2.02936C9.79576 1.93953 9.76822 1.81091 9.66816 1.6244C9.34827 1.31573 8.87048 1.07516 8.21077 1.07516Z" fill="#0F31AF"/>
<path fill-rule="evenodd" clip-rule="evenodd" d="M18.1717 17.2874L18.1843 17.2874C19.1918 17.2874 20.027 17.5179 20.5834 18.3508C20.8342 18.6754 20.9958 19.0467 20.9958 19.444C20.9958 19.8583 20.8199 20.2257 20.5309 20.5194L20.3559 20.6974L20.2962 21.5473C20.413 21.6093 20.5167 21.6916 20.604 21.7915C20.8032 22.0193 20.8917 22.3081 20.8917 22.5797C20.8917 22.5957 20.891 22.6117 20.8895 22.6276L20.7854 23.7919C20.7818 23.8326 20.7735 23.8726 20.7608 23.9114C20.6538 24.2376 20.4362 24.5584 20.0922 24.7107C19.9131 25.4805 19.4834 26.2598 18.9713 26.8532L19.128 27.4372L21.2245 27.9932C22.8212 28.3716 23.9114 29.8624 23.9114 31.4708C23.9114 31.7631 23.6783 32 23.3908 32H9.85399C9.56644 32 9.33334 31.7631 9.33334 31.4708C9.33334 29.8624 10.4236 28.3716 12.0203 27.9932L14.1252 27.435L14.2685 26.9496C13.7712 26.3535 13.4225 25.5926 13.2615 24.8597C13.1147 24.8172 12.9749 24.7473 12.8535 24.6513C12.6402 24.4827 12.4668 24.2162 12.4576 23.8781L12.3552 22.7334C12.3538 22.7175 12.3531 22.7015 12.3531 22.6855C12.3531 22.3546 12.5106 22.068 12.7008 21.8747C12.7699 21.8045 12.8511 21.7387 12.942 21.6833C12.9373 21.629 12.9325 21.5715 12.9276 21.5122C12.9019 21.1984 12.8737 20.806 12.8737 20.5686C12.8737 20.0305 12.9176 19.3163 13.4109 18.7592C13.887 18.2214 14.6703 17.948 15.8288 17.9241C16.7526 17.2872 17.663 17.2873 18.1717 17.2874ZM13.4985 22.0504V22.5797C13.5017 22.5797 13.5032 22.5794 13.5032 22.5794C13.5031 22.5794 13.4985 22.5803 13.4893 22.5846C13.4747 22.5915 13.4557 22.6042 13.4371 22.6231C13.4185 22.642 13.406 22.6613 13.3992 22.6761C13.398 22.6788 13.397 22.6812 13.3963 22.6831L13.4964 23.8019C13.4969 23.8077 13.4973 23.8136 13.4976 23.8194C13.5066 23.8256 13.5201 23.8329 13.5379 23.839C13.5591 23.8462 13.5817 23.8498 13.6026 23.8498H13.7068C13.9693 23.8498 14.1908 24.0486 14.2234 24.3134C14.3147 25.056 14.6858 25.896 15.2203 26.4393C15.3558 26.577 15.4059 26.7791 15.3509 26.9656L15.0385 28.0241C14.9863 28.201 14.8471 28.3375 14.6712 28.3841L12.2763 29.0192L12.2619 29.0228C11.3295 29.2415 10.6285 30.0195 10.4309 30.9416H22.8139C22.6163 30.0195 21.9152 29.2415 20.9829 29.0228L20.9685 29.0192L18.5735 28.3841C18.3932 28.3363 18.2517 28.1941 18.2027 28.0113L17.8903 26.8469C17.8411 26.6637 17.8923 26.4678 18.0244 26.3335C18.5855 25.7631 19.0386 24.914 19.1255 24.2076C19.1581 23.9427 19.3796 23.744 19.6421 23.744C19.6614 23.744 19.6707 23.7409 19.6741 23.7396C19.6775 23.7384 19.6823 23.736 19.6898 23.7294C19.7032 23.7174 19.7288 23.6874 19.7547 23.6259L19.8497 22.5633C19.8466 22.5268 19.8336 22.5037 19.8257 22.4947C19.8221 22.4906 19.8181 22.4872 19.8109 22.484C19.8037 22.4808 19.7843 22.4738 19.7463 22.4738C19.6017 22.4738 19.4637 22.4128 19.3652 22.3052C19.2667 22.1977 19.2166 22.0534 19.2269 21.9069L19.3311 20.425C19.34 20.298 19.3937 20.1786 19.4822 20.0885L19.7946 19.771C19.9222 19.6413 19.9545 19.5324 19.9545 19.444C19.9545 19.3459 19.9139 19.1943 19.7562 18.994C19.7468 18.982 19.7379 18.9697 19.7296 18.9569C19.4529 18.5351 19.0436 18.3458 18.1843 18.3458C17.6752 18.3458 16.9963 18.3518 16.31 18.8751C16.2199 18.9438 16.1103 18.9809 15.9976 18.9809C14.8543 18.9809 14.3888 19.2369 14.1849 19.4672C13.9753 19.7039 13.915 20.0483 13.915 20.5686C13.915 20.7546 13.939 21.1031 13.9653 21.4243C13.9781 21.5808 13.991 21.7245 14.0006 21.829L14.0122 21.9529L14.0155 21.9865L14.0165 21.9972L13.4985 22.0504Z" fill="#0F31AF"/>
<path fill-rule="evenodd" clip-rule="evenodd" d="M5.477 16.3321C5.66792 16.1346 5.97748 16.1346 6.1684 16.3321L9.1018 19.3666C9.29273 19.5641 9.29273 19.8843 9.1018 20.0818C8.91087 20.2793 8.60132 20.2793 8.41039 20.0818L5.477 17.0473C5.28607 16.8498 5.28607 16.5296 5.477 16.3321Z" fill="#0F31AF"/>
<path fill-rule="evenodd" clip-rule="evenodd" d="M27.4003 16.3321C27.6086 16.5296 27.6086 16.8498 27.4003 17.0473L24.2003 20.0818C23.992 20.2793 23.6543 20.2793 23.446 20.0818C23.2377 19.8843 23.2377 19.5641 23.446 19.3666L26.6461 16.3321C26.8544 16.1346 27.1921 16.1346 27.4003 16.3321Z" fill="#0F31AF"/>
<path fill-rule="evenodd" clip-rule="evenodd" d="M13.3333 5.83324C13.3333 5.55711 13.5629 5.33325 13.8462 5.33325H18.1539C18.4371 5.33325 18.6667 5.55711 18.6667 5.83324C18.6667 6.10938 18.4371 6.33323 18.1539 6.33323H13.8462C13.5629 6.33323 13.3333 6.10938 13.3333 5.83324Z" fill="#0F31AF"/>
<path fill-rule="evenodd" clip-rule="evenodd" d="M23.1206 0.947004C23.8699 0.268327 24.7433 0 25.2443 0C25.6212 0 25.9385 0.0252171 26.2298 0.144851C26.456 0.237745 26.6361 0.375127 26.8048 0.533474H26.9073C27.0558 0.533474 27.2728 0.552589 27.5092 0.663165C27.7496 0.775577 27.9784 0.967667 28.1711 1.26449C28.5431 1.83722 28.7781 2.79373 28.7781 4.37449C28.7781 5.86003 29.0274 6.77108 29.2529 7.29199C29.3658 7.55277 29.474 7.71876 29.5453 7.81259C29.581 7.85965 29.6078 7.88909 29.6218 7.9036C29.6268 7.90875 29.6302 7.91205 29.6319 7.91361C29.7574 8.02179 29.8261 8.18469 29.8165 8.35316C29.8067 8.52583 29.716 8.68292 29.5732 8.77459L29.2977 8.3222C29.5732 8.77459 29.5733 8.77449 29.5732 8.77459L29.5719 8.77542L29.5703 8.77644L29.5661 8.77905L29.5541 8.78649C29.5444 8.7924 29.5315 8.80018 29.5153 8.80962C29.4828 8.82851 29.4373 8.85405 29.3788 8.88453C29.2619 8.94548 29.0933 9.02624 28.8747 9.11311C28.5418 9.24543 28.0928 9.39189 27.5338 9.50403L27.5511 9.58395L29.5277 10.0451C31.0296 10.4306 32 11.8373 32 13.4436C32 13.585 31.9453 13.7207 31.8478 13.8208C31.7503 13.9208 31.6182 13.977 31.4803 13.977H19.0083C18.7213 13.977 18.4886 13.7382 18.4886 13.4436C18.4886 11.9322 19.4696 10.5347 20.9609 10.1519L20.9718 10.1492L22.9376 9.69064L22.9549 9.61072C22.3959 9.49858 21.9469 9.35212 21.6139 9.21981C21.3953 9.13294 21.2267 9.05217 21.1098 8.99122C21.0514 8.96074 21.0058 8.93521 20.9734 8.91632C20.9571 8.90687 20.9442 8.89909 20.9345 8.89318L20.9225 8.88575L20.9184 8.88313L20.9168 8.88211L20.9158 8.88147C20.9156 8.88138 20.9155 8.88128 21.1909 8.4289L20.9158 8.88147C20.7729 8.7898 20.6819 8.63253 20.6721 8.45986C20.6626 8.29139 20.7312 8.12849 20.8568 8.02031C20.8584 8.01874 20.8618 8.01545 20.8668 8.0103C20.8808 7.99578 20.9077 7.96635 20.9434 7.91928C21.0146 7.82545 21.1228 7.65947 21.2357 7.39868C21.4612 6.87778 21.7106 5.96673 21.7106 4.48118C21.7106 2.78198 22.3456 1.64904 23.1206 0.947004ZM21.991 8.22554C22.3591 8.37169 22.9162 8.54653 23.6501 8.64697C23.7944 8.66672 23.924 8.74772 24.0074 8.87024C24.0908 8.99277 24.1203 9.14558 24.0887 9.29149L23.8808 10.2517C23.8372 10.453 23.6845 10.6105 23.4887 10.6562L21.2079 11.1884C20.3812 11.4027 19.7736 12.0876 19.5875 12.9101H30.9106C30.7353 11.9981 30.1143 11.2978 29.2807 11.0817L27 10.5495C26.8041 10.5038 26.6514 10.3463 26.6078 10.145L26.4 9.18479C26.3684 9.03889 26.3979 8.88607 26.4812 8.76355C26.5646 8.64102 26.6943 8.56002 26.8386 8.54027C27.5724 8.43983 28.1295 8.265 28.4977 8.11884C28.4338 8.00569 28.368 7.8751 28.3032 7.72532C28.009 7.04591 27.7387 5.9831 27.7387 4.37449C27.7387 2.8611 27.506 2.16384 27.3063 1.85633C27.2133 1.71304 27.1303 1.6584 27.0783 1.63411C27.0225 1.60798 26.9666 1.60042 26.9073 1.60042H26.5955C26.4576 1.60042 26.3254 1.54422 26.228 1.44417C26.0295 1.24037 25.9356 1.17317 25.8438 1.13549C25.7454 1.09508 25.5949 1.06695 25.2443 1.06695C25.0178 1.06695 24.3842 1.2254 23.8083 1.74704C23.2582 2.24532 22.7499 3.08624 22.7499 4.48118C22.7499 6.08979 22.4796 7.1526 22.1854 7.83201C22.1206 7.9818 22.0548 8.11238 21.991 8.22554Z" fill="#0F31AF"/>
</svg>
